<svg xmlns="http://www.w3.org/2000/svg" height="38pt" width="38pt" viewBox="0 0 110.13 52.72"><defs><style>.cls-1{fill:#70b85d;}.cls-2{fill:#fff;}</style></defs><title>Asset 1</title><g id="Layer_2" data-name="Layer 2"><g id="Layer_1-2" data-name="Layer 1"><path class="cls-1" d="M95.5,24.75c-.28-.13-6.83-3.08-18.61-3.08a42.2,42.2,0,0,0-13.2,1.9,26.94,26.94,0,0,1-8.33,1.37A26.82,26.82,0,0,1,47,23.57a42.25,42.25,0,0,0-13.2-1.9c-11.79,0-18.34,2.95-18.62,3.08a1.06,1.06,0,0,0-.61.88l-.34,5.05a1,1,0,0,0,.67,1,3,3,0,0,1,1.05.67c0,.18.16.74.33,1.54a80,80,0,0,0,2.74,10.56c1.4,3.69,2.89,5.28,6.37,6.78a23,23,0,0,0,8.37,1.45,20.77,20.77,0,0,0,8.12-1.51c6-2.58,7.41-6.49,9.23-11.44.26-.74.5-1.4.7-2,1.27-3.64,1.51-4.11,3.51-4.11s2.25.47,3.51,4.11c.21.6.44,1.25.71,2,1.81,5,3.24,8.87,9.22,11.45a20.79,20.79,0,0,0,8.13,1.51,23,23,0,0,0,8.37-1.45c3.47-1.5,5-3.09,6.36-6.78A77.47,77.47,0,0,0,94.39,34c.17-.81.29-1.39.34-1.55a2.64,2.64,0,0,1,1-.7,1,1,0,0,0,.67-1l-.34-5.05a1.06,1.06,0,0,0-.61-.88ZM45.12,42.66c-1.88,3.89-5.81,5.87-11.7,5.87-4.72,0-7.62-1.07-9.39-3.45s-3.79-12.16-2.44-15.21,7.3-3.95,12.49-3.95c5.46,0,11.93,1.12,13.25,3.59s.54,7.45-2.21,13.15Zm41.57,2.42c-1.77,2.38-4.67,3.45-9.39,3.45-5.88,0-9.82-2-11.7-5.87C62.86,37,62,32,63.39,29.51s7.8-3.59,13.25-3.59c5.19,0,11.19,1,12.49,3.95s-.72,12.9-2.44,15.21Z"/><path class="cls-2" d="M44.14,35.37a2.26,2.26,0,0,1-2.26-2.26,2.23,2.23,0,0,1,.4-1.28,3.62,3.62,0,0,0-.94-.13,4,4,0,1,0,4,4,4.34,4.34,0,0,0-.06-.62A2.24,2.24,0,0,1,44.14,35.37Z"/><path class="cls-2" d="M72.47,35.48a2.26,2.26,0,0,1-2.26-2.26,2.22,2.22,0,0,1,.41-1.28,4.26,4.26,0,0,0-1-.12,4,4,0,1,0,4,4,4.07,4.07,0,0,0-.06-.62A2.23,2.23,0,0,1,72.47,35.48Z"/><path class="cls-2" d="M95.81,9A14.26,14.26,0,0,0,84,15.19a34.63,34.63,0,0,0-57.3,0A14.3,14.3,0,1,0,14.31,36.58c.3,0,.58,0,.87,0-.18-.6-.36-1.22-.53-1.86A10.81,10.81,0,1,1,25.47,17.14a32.84,32.84,0,0,0-1.74,3.33,60.8,60.8,0,0,1,9.67-.79,16.47,16.47,0,0,1,22,2.94,16.47,16.47,0,0,1,22-2.94,61,61,0,0,1,9.68.79c-.49-1.07-1-2.1-1.62-3.11A10.81,10.81,0,1,1,95.47,35.68c-.16.64-.34,1.26-.52,1.86.28,0,.57,0,.86,0A14.31,14.31,0,1,0,95.81,9Z"/></g></g></svg>